<svg height="800" viewBox="0 0 318.188 318.188" width="800" xmlns="http://www.w3.org/2000/svg"><path d="m227.321 7.5h-186.979v303.188h237.504v-252.663z" fill="#e4e4e4"/><path d="m235.14 32.763h-194.798v-25.263h186.979z" fill="#007934"/><path d="m209.481 138.248c5.465-5.466 5.467-14.329 0-19.795l-48.938 48.937-39.039-39.039 39.039-39.04 14.57 14.57-22.366 22.368 9.897 9.897 27.315-27.316c2.735-2.733 2.735-7.165 0-9.898l-24.468-24.469c-2.733-2.733-7.163-2.733-9.897 0l-48.938 48.938c-2.732 2.733-2.732 7.165 0 9.898l48.938 48.938c2.734 2.733 7.164 2.733 9.897 0z" fill="#007934"/><path d="m227.321 58.025h50.525l-50.525-50.525z" fill="#d1d3d3"/><path d="m185.291 261.484c0 3.457-.597 5.945-1.789 7.466s-3.112 2.281-5.759 2.281c-2.473 0-4.344-.766-5.612-2.297-1.269-1.531-1.903-3.992-1.903-7.384v-28.158h-13.028v29.175c0 6.28 1.756 11.093 5.267 14.44 3.512 3.347 8.538 5.021 15.08 5.021 6.694 0 11.819-1.723 15.375-5.168 3.555-3.446 5.333-8.308 5.333-14.587v-28.88h-12.963v28.091zm97.858-208.762-50.524-50.525c-1.407-1.407-3.314-2.197-5.304-2.197h-186.979c-4.143 0-7.5 3.358-7.5 7.5v303.188c0 4.142 3.357 7.5 7.5 7.5h237.504c4.143 0 7.5-3.358 7.5-7.5v-252.663c0-1.989-.79-3.896-2.197-5.303zm-48.328-27.116 24.918 24.919h-24.918zm-186.979-10.606h171.979v10.263h-171.979zm222.504 288.188h-222.504v-262.925h171.979v17.763c0 4.142 3.357 7.5 7.5 7.5h43.024v237.662zm-62.017-69.796v47.979h18.673c5.645 0 10.103-1.252 13.373-3.758 3.271-2.505 4.906-5.934 4.906-10.288 0-2.932-.668-5.316-2.002-7.154-1.335-1.838-3.49-3.15-6.465-3.938v-.328c2.253-.547 4.069-1.772 5.447-3.676 1.379-1.903 2.068-4.201 2.068-6.892 0-4.091-1.581-7.105-4.742-9.041-3.162-1.937-8.003-2.905-14.522-2.905zm17.525 37.97h-4.562v-10.075h4.299c2.057 0 3.626.427 4.709 1.28 1.083.854 1.625 2.079 1.625 3.676 0 3.412-2.025 5.119-6.071 5.119zm5.184-24.121c0 1.51-.508 2.647-1.525 3.413-1.018.766-2.456 1.148-4.315 1.148h-3.905v-8.598h3.643c4.068 0 6.102 1.346 6.102 4.037zm-85.785-9.878c-3.041-2.647-7.592-3.971-13.651-3.971h-16.606v47.979h12.963v-15.917h3.644c5.819 0 10.31-1.46 13.472-4.381 3.161-2.92 4.742-7.061 4.742-12.421-.002-4.879-1.523-8.642-4.564-11.289zm-10.287 15.884c-1.149 1.094-2.697 1.641-4.645 1.641h-2.363v-11.026h3.348c3.588 0 5.383 1.619 5.383 4.857-.001 1.924-.575 3.434-1.723 4.528zm-45.535-9.715c-5.885 0-10.414 1.68-13.586 5.038-3.173 3.359-4.759 8.177-4.759 14.456 0 6.083 1.712 10.77 5.136 14.063s8.232 4.939 14.424 4.939c2.975 0 5.535-.197 7.68-.591 2.143-.394 4.222-1.104 6.234-2.133v-9.222c-2.21 1.028-4.261 1.755-6.152 2.182-1.893.427-3.967.64-6.22.64-2.473 0-4.425-.591-5.858-1.772s-2.193-2.811-2.28-4.89h22.939v-5.71c0-5.491-1.526-9.697-4.578-12.618s-7.379-4.382-12.98-4.382zm-5.119 14.637c.175-2.035.771-3.528 1.789-4.479 1.017-.952 2.28-1.428 3.79-1.428 1.641 0 2.948.537 3.921 1.608.974 1.072 1.482 2.505 1.527 4.299z" fill="#333e48"/></svg>