<svg id="vector" xmlns="http://www.w3.org/2000/svg" width="24" height="24" viewBox="0 0 64.0 64.0"><path fill="#faefde" d="M21.39,5H50.15a3,3 0,0 1,3 3V56a3,3 0,0 1,-3 3h-38a3,3 0,0 1,-3 -3V17.24A3,3 0,0 1,10 15.12l9.24,-9.24A3,3 0,0 1,21.39 5Z" id="path_0"/><path fill="#fff7f0" d="M9.15,59.06l-0.15,-9.46l43.48,-43.48l0.67,22.94l-30,30l-14,0z" id="path_1"/><path fill="#fff7f0" d="M9,39.21l34.21,-34.21l5.75,0.25l-39.81,39.81l-0.15,-5.85z" id="path_2"/><path fill="#fff7f0" d="M9,33.21l28.15,-28.15l3,0l-31.15,31.15l0,-3z" id="path_3"/><path fill="#fff" d="M41.65,17.06l1.24,2.26l2.26,1.24l-2.26,1.24l-1.24,2.26l-1.24,-2.26l-2.26,-1.24l2.26,-1.24l1.24,-2.26z" id="path_4"/><path fill="#fff" d="M27.57,12.06l0.85,1.57l1.56,0.85l-1.56,0.86l-0.85,1.56l-0.86,-1.56l-1.56,-0.86l1.56,-0.85l0.86,-1.57z" id="path_5"/><path fill="#fff" d="M17.8,32.06l0.58,1.07l1.06,0.58l-1.06,0.58l-0.58,1.07l-0.59,-1.07l-1.06,-0.58l1.06,-0.58l0.59,-1.07z" id="path_6"/><path fill="#bbdef9" d="M21.15,5.06l0,12l-12,0l12,-12z" id="path_7"/><path fill="#f6d397" d="M25,23V38.08A6.24,6.24 0,0 0,24 38c-2.76,0 -5,1.79 -5,4s2.24,4 5,4 5,-1.79 5,-4V29.11l10,-2.22v7.19A6.24,6.24 0,0 0,38 34c-2.76,0 -5,1.79 -5,4s2.24,4 5,4 5,-1.79 5,-4V19Z" id="path_8"/><path fill="#8d6c9f" d="M51,4H21.66a5,5 0,0 0,-3.54 1.46L9.46,14.12A5,5 0,0 0,8 17.66V57a3,3 0,0 0,3 3H51a3,3 0,0 0,3 -3V7A3,3 0,0 0,51 4ZM19.54,6.88A3,3 0,0 1,20 6.5V15a1,1 0,0 1,-1 1H10.5a3,3 0,0 1,0.38 -0.46ZM52,57a1,1 0,0 1,-1 1H11a1,1 0,0 1,-1 -1V18h9a3,3 0,0 0,3 -3V6H51a1,1 0,0 1,1 1Z" id="path_9"/><path fill="#8d6c9f" d="M13,52a1,1 0,0 0,-1 1v2a1,1 0,0 0,2 0V53A1,1 0,0 0,13 52Z" id="path_10"/><path fill="#8d6c9f" d="M18,52a1,1 0,0 0,-1 1v2a1,1 0,0 0,2 0V53A1,1 0,0 0,18 52Z" id="path_11"/><path fill="#8d6c9f" d="M23,52a1,1 0,0 0,-1 1v2a1,1 0,0 0,2 0V53A1,1 0,0 0,23 52Z" id="path_12"/><path fill="#8d6c9f" d="M28,52a1,1 0,0 0,-1 1v2a1,1 0,0 0,2 0V53A1,1 0,0 0,28 52Z" id="path_13"/><path fill="#8d6c9f" d="M33,52a1,1 0,0 0,-1 1v2a1,1 0,0 0,2 0V53A1,1 0,0 0,33 52Z" id="path_14"/><path fill="#8d6c9f" d="M38,52a1,1 0,0 0,-1 1v2a1,1 0,0 0,2 0V53A1,1 0,0 0,38 52Z" id="path_15"/><path fill="#8d6c9f" d="M43,52a1,1 0,0 0,-1 1v2a1,1 0,0 0,2 0V53A1,1 0,0 0,43 52Z" id="path_16"/><path fill="#8d6c9f" d="M48,52a1,1 0,0 0,-1 1v2a1,1 0,0 0,2 0V53A1,1 0,0 0,48 52Z" id="path_17"/><path fill="#8d6c9f" d="M42.78,18l-18,4A1,1 0,0 0,24 23V37c-3.31,0 -6,2.24 -6,5s2.69,5 6,5 6,-2.24 6,-5V29.91l8,-1.78V33c-3.31,0 -6,2.24 -6,5s2.69,5 6,5 6,-2.24 6,-5V19a1,1 0,0 0,-1.22 -1ZM42,38c0,1.65 -1.79,3 -4,3s-4,-1.35 -4,-3 1.79,-3 4,-3a5.13,5.13 0,0 1,0.84 0.07,1 1,0 0,0 1.16,-1V26.89a1,1 0,0 0,-1.22 -1l-10,2.22a1,1 0,0 0,-0.78 1V42c0,1.65 -1.79,3 -4,3s-4,-1.35 -4,-3 1.79,-3 4,-3a5.13,5.13 0,0 1,0.84 0.07,1 1,0 0,0 1.16,-1V23.8l16,-3.55Z" id="path_18"/></svg>