<svg id="vector" xmlns="http://www.w3.org/2000/svg" width="24" height="24" viewBox="0 0 64.0 64.0"><path fill="#85cbf8" d="M7,7L57,7A2,2 0,0 1,59 9L59,55A2,2 0,0 1,57 57L7,57A2,2 0,0 1,5 55L5,9A2,2 0,0 1,7 7z" id="path_0"/><path fill="#7bbeeb" d="M8.46,52h46a4,4 0,0 1,4 4v0a1,1 0,0 1,-1 1h-52a1,1 0,0 1,-1 -1v0A4,4 0,0 1,8.46 52Z" id="path_1"/><path fill="#faefde" d="M45.28,31H23V19.7a1,1 0,0 1,1.49 -0.87l20.31,11.3A1,1 0,0 1,45.28 31Z" id="path_2"/><path fill="#efd8be" d="M23,42.3V19.7a1,1 0,0 1,1.49 -0.87l20.31,11.3a1,1 0,0 1,0 1.75L24.45,43.17A1,1 0,0 1,23 42.3Z" id="path_3"/><path fill="#faefde" d="M45.28,31H23V19.7a1,1 0,0 1,1.49 -0.87l20.31,11.3A1,1 0,0 1,45.28 31Z" id="path_4"/><path fill="#8d6c9f" d="M57,6L7,6A3,3 0,0 0,4 9L4,55a3,3 0,0 0,3 3L57,58a3,3 0,0 0,3 -3L60,9A3,3 0,0 0,57 6ZM58,55a1,1 0,0 1,-1 1L7,56a1,1 0,0 1,-1 -1L6,9A1,1 0,0 1,7 8L57,8a1,1 0,0 1,1 1Z" id="path_5"/><path fill="#8d6c9f" d="M14,50a1,1 0,0 0,-1 1v2a1,1 0,0 0,2 0V51A1,1 0,0 0,14 50Z" id="path_6"/><path fill="#8d6c9f" d="M9,50a1,1 0,0 0,-1 1v2a1,1 0,0 0,2 0V51A1,1 0,0 0,9 50Z" id="path_7"/><path fill="#8d6c9f" d="M29,50a1,1 0,0 0,-1 1v2a1,1 0,0 0,2 0V51A1,1 0,0 0,29 50Z" id="path_8"/><path fill="#8d6c9f" d="M34,50a1,1 0,0 0,-1 1v2a1,1 0,0 0,2 0V51A1,1 0,0 0,34 50Z" id="path_9"/><path fill="#8d6c9f" d="M39,50a1,1 0,0 0,-1 1v2a1,1 0,0 0,2 0V51A1,1 0,0 0,39 50Z" id="path_10"/><path fill="#8d6c9f" d="M44,50a1,1 0,0 0,-1 1v2a1,1 0,0 0,2 0V51A1,1 0,0 0,44 50Z" id="path_11"/><path fill="#8d6c9f" d="M49,50a1,1 0,0 0,-1 1v2a1,1 0,0 0,2 0V51A1,1 0,0 0,49 50Z" id="path_12"/><path fill="#8d6c9f" d="M54,50a1,1 0,0 0,-1 1v2a1,1 0,0 0,2 0V51A1,1 0,0 0,54 50Z" id="path_13"/><path fill="#8d6c9f" d="M19,50a1,1 0,0 0,-1 1v2a1,1 0,0 0,2 0V51A1,1 0,0 0,19 50Z" id="path_14"/><path fill="#8d6c9f" d="M24,50a1,1 0,0 0,-1 1v2a1,1 0,0 0,2 0V51A1,1 0,0 0,24 50Z" id="path_15"/><path fill="#8d6c9f" d="M45.25,29.25 L24.93,18a2,2 0,0 0,-2 0A2,2 0,0 0,22 19.7V42.3A2,2 0,0 0,22.95 44a2,2 0,0 0,2 0l20.31,-11.3a2,2 0,0 0,0 -3.5ZM24,42.3V19.7L44.27,31Z" id="path_16"/></svg>