<?xml version="1.0" encoding="UTF-8" standalone="no"?>
<!-- Created with Inkscape (http://www.inkscape.org/) -->

<svg
   version="1.1"
   id="svg2"
   width="5333.3335"
   height="5333.3335"
   viewBox="0 0 5333.3335 5333.3335"
   sodipodi:docname="vecteezy_modern-flat-design-of-dbv-file-icon-for-web_.eps"
   xmlns:inkscape="http://www.inkscape.org/namespaces/inkscape"
   xmlns:sodipodi="http://sodipodi.sourceforge.net/DTD/sodipodi-0.dtd"
   xmlns="http://www.w3.org/2000/svg"
   xmlns:svg="http://www.w3.org/2000/svg">
  <defs
     id="defs6" />
  <sodipodi:namedview
     id="namedview4"
     pagecolor="#ffffff"
     bordercolor="#000000"
     borderopacity="0.25"
     inkscape:showpageshadow="2"
     inkscape:pageopacity="0.0"
     inkscape:pagecheckerboard="0"
     inkscape:deskcolor="#d1d1d1" />
  <g
     id="g8"
     inkscape:groupmode="layer"
     inkscape:label="ink_ext_XXXXXX"
     transform="matrix(1.3333333,0,0,-1.3333333,0,5333.3333)">
    <g
       id="g10"
       transform="scale(0.1)">
      <path
         d="M 6992.22,37264.4 V 2735.7 H 33007.8 v 26849 l -7679.7,7679.7 H 6992.22"
         style="fill:#ffffff;fill-opacity:1;fill-rule:nonzero;stroke:none"
         id="path14" />
      <path
         d="m 25332.1,37254.4 7645.7,-7645.7 h -7645.7 z"
         style="fill:#ffffff;fill-opacity:1;fill-rule:nonzero;stroke:none"
         id="path16" />
      <path
         d="M 33007.8,2735.7 H 6992.22 V 13316.8 H 33007.8 V 2735.7"
         style="fill:#000000;fill-opacity:1;fill-rule:nonzero;stroke:none"
         id="path18" />
      <path
         d="M 7142.22,2885.6 H 32857.8 v 26637 L 25266,37114.4 H 7142.22 Z m 26015.58,-300 H 6842.22 V 37414.4 H 25390.3 l 43.9,-44 7723.6,-7723.6 V 2585.6"
         style="fill:#000000;fill-opacity:1;fill-rule:nonzero;stroke:none"
         id="path20" />
      <path
         d="m 25482.1,29758.7 h 7133.6 l -7133.6,7133.5 z m 7495.7,-300 h -7645.7 c -82.9,0 -150,67.1 -150,150 v 7645.7 c 0,60.6 36.5,115.3 92.6,138.5 56,23.2 120.6,10.4 163.4,-32.5 l 7645.7,-7645.7 c 42.9,-42.9 55.8,-107.4 32.6,-163.5 -23.3,-56 -77.9,-92.5 -138.6,-92.5"
         style="fill:#000000;fill-opacity:1;fill-rule:nonzero;stroke:none"
         id="path22" />
      <path
         d="m 12453.1,6662.8 h 824.5 c 1102.8,0 1683.7,826.1 1683.7,2227.6 0,1158.1 -520.7,1986.8 -1674.6,1986.8 h -833.6 z m -1278.3,5231.1 h 2165.7 c 1893.7,0 2934.4,-1158.8 2934.4,-2984.2 0,-2025.6 -1093.9,-3247.5 -2983.8,-3247.5 h -2116.3 v 6231.7"
         style="fill:#ffffff;fill-opacity:1;fill-rule:nonzero;stroke:none"
         id="path24" />
      <path
         d="m 17259,11138.9 v 1137.4 h 1237.2 v -1137.4 z m 1236.2,-769.2 V 5721.9 c 0,-1197.7 -155.1,-1945.6 -1444.1,-1945.6 -179,0 -294,9 -403.5,26.2 v 1009.7 c 96.8,-9.1 184.1,-9.1 229.5,-9.1 393.6,1.1 381.9,264.8 381.9,685.2 v 4881.4 h 1236.2"
         style="fill:#ffffff;fill-opacity:1;fill-rule:nonzero;stroke:none"
         id="path26" />
      <path
         d="m 21008.6,5662.2 -2008.1,6231.7 h 1362.7 l 827.2,-2832.7 c 244.1,-828.3 472.8,-1618.7 587.4,-2206.6 h 18.2 c 127.3,554 377.6,1396.8 616.9,2175.7 l 878.5,2863.6 h 1298.7 L 22523,5662.2 h -1514.4"
         style="fill:#ffffff;fill-opacity:1;fill-rule:nonzero;stroke:none"
         id="path28" />
      <path
         d="m 28807.1,7052.2 c 0,-677.4 9.1,-1148.8 18.1,-1390 h -1201.9 c -27.2,142.2 -36.3,342.6 -44.3,565.5 -290.8,-492.2 -710.9,-647.4 -1295.5,-647.4 -941.2,0 -1454.5,590.2 -1454.5,1650.2 v 3139.2 h 1228.1 v -2934 c 0,-495.8 176.1,-837.7 683.5,-837.7 514.7,0 828.2,319.4 828.2,1145.1 v 2626.6 h 1238.3 V 7052.2"
         style="fill:#ffffff;fill-opacity:1;fill-rule:nonzero;stroke:none"
         id="path30" />
      <path
         d="m 31059.9,17531.3 -7689.6,-2396 -2395.9,7689.6 7689.6,2396 2395.9,-7689.6"
         style="fill:#000000;fill-opacity:1;fill-rule:nonzero;stroke:none"
         id="path32" />
      <path
         d="m 23700.8,16788 -12.2,3.2 c -5,1.2 -9.9,2.7 -14.8,4.2 -1.1,0.4 -2.2,0.7 -3.4,1.1 -222.7,16 -451.6,57.6 -680.5,123.8 -305.2,88.3 -595.4,219 -862.4,388.6 -211.4,134.3 -392.3,278.3 -553.1,440.2 -53.1,53.4 -105.6,110.8 -160.6,175.4 -585.5,687.8 -1170.7,1375.9 -1755.9,2064 l -2553.2,3001.9 -2269.2,2668.4 -2526,2969.8 c -463.7,545.2 -927.4,1090.4 -1391.1,1635.7 -293.1,344.7 -497,739 -606.1,1172 -41.6,165.1 -67.4,330.6 -76.8,491.8 -1,17.5 -2.6,35.1 -7.8,45.6 l -10.1,20.8 v 237.4 l 9.5,20.2 c 5,10.7 6.7,29.1 8.7,50.5 l 0.4,4.7 c 1.3,14 2.6,27.9 3.8,41.8 5.2,58.2 10.6,118.4 19.8,178.5 36.8,239.1 103,469.9 196.9,686.1 178.7,411.6 441.7,759.4 781.7,1033.7 319.8,258 691,435.6 1103.2,527.9 132.8,29.7 275,50 422.5,60.2 1.6,0.2 7.4,1.6 11.7,2.6 5.6,1.4 11.1,2.7 16.7,3.9 l 9.9,2 h 280.5 l 11.1,-2.5 c 5.2,-1.2 10.4,-2.6 15.7,-4.1 2.5,-0.6 5.8,-1.5 7.6,-2 87.3,-6 176,-16 263.9,-29.7 190.4,-29.5 376.2,-78.5 552.3,-145.6 425.2,-162 795.3,-419.2 1100.3,-764.7 126.8,-143.7 252.2,-292.1 373.5,-435.7 48.3,-57.1 96.6,-114.3 145.1,-171.3 521.2,-612.6 1042.2,-1225.2 1563.2,-1837.9 0,0 1814,-2133.1 2183.1,-2567.1 344.9,-405.5 1748.2,-2055.2 2105,-2474.7 422,-496.1 844,-992.3 1265.9,-1488.5 l 677.1,-796.3 c 19.1,-22.4 38.1,-44.7 57.2,-67.1 37.1,-43.4 74.1,-86.9 111,-130.6 195.9,-232.4 336.8,-502.1 418.7,-801.6 59.4,-217.2 83.1,-443.8 70.5,-673.4 -15.5,-281.6 -84.8,-552.1 -205.9,-804.1 -142.6,-296.5 -346.3,-548.7 -605.7,-749.4 -197.6,-152.9 -420.7,-268.3 -663.1,-342.8 -121.2,-37.3 -243.7,-63.4 -364.3,-77.6 -83.5,-9.8 -168.8,-14.8 -253.4,-14.8 -68.7,0 -138.6,3.3 -208,9.7 -205.6,19.3 -407.1,68.6 -599,146.6 -278.1,113.1 -521.8,278.5 -724.3,491.5 -55.3,58.2 -107.2,119.5 -157.4,178.8 l -29.5,34.7 c -492.5,578.9 -984.9,1157.9 -1477.3,1736.9 l -2309.5,2715.5 -1938.6,2279.2 c -74.1,87.1 -148.2,174.3 -222.3,261.5 -7.9,9.3 -14.8,18.5 -21.6,27.4 -2.8,3.7 -5.8,7.7 -9,11.8 l -53.3,68.8 60.8,62.3 c 33.1,33.9 67.2,62.2 100.2,89.6 13.4,11.1 26.7,22.2 39.8,33.5 31.4,27.2 63.4,54.4 94.3,80.6 13.9,11.7 27.7,23.4 41.5,35.2 l 183.3,156.1 58.1,-26.8 c 37.6,-17.3 58.3,-44.4 69.5,-58.9 1.4,-1.8 2.7,-3.6 4.1,-5.3 274.5,-322.3 548.7,-644.7 822.9,-967.2 l 1876,-2205.7 c 0,0 1439.4,-1692.6 1778.3,-2091 129,-151.8 258.1,-303.6 387.1,-455.3 393.7,-463.1 800.8,-941.9 1202.1,-1412.1 117.7,-138 268.2,-249.5 447.2,-331.7 184.3,-84.5 377.4,-127.4 573.9,-127.4 33.3,0 67.2,1.3 100.8,3.7 608.9,44 1103.7,469.2 1231.3,1058 90.7,418.3 5.9,804.2 -252.1,1147.1 -39.9,53.1 -83.5,103.1 -129.7,156.1 -19.5,22.2 -38.9,44.5 -58,67 -724.3,851.8 -1448.7,1703.5 -2173.2,2555.2 l -2055.1,2416.3 -2213.6,2602.7 -557.7,655.8 c -408,479.6 -815.9,959.2 -1223.8,1438.9 -69.5,81.8 -138.1,161.1 -213.3,232.2 -284.5,269.3 -617.5,445.3 -989.7,523.2 -125.8,26.4 -257.2,40.8 -390.5,43.1 -12.3,0.2 -24.6,0.3 -36.9,0.3 -304.2,0 -594,-64.9 -861.1,-192.9 -384,-184 -681.1,-473.4 -883,-860.3 -107.5,-206 -178.2,-430.8 -210.1,-668.2 -21.8,-161.2 -23.3,-325.2 -4.8,-487.4 48.4,-422.2 211.8,-801.8 485.8,-1128 224.7,-267.6 455.4,-538.1 678.4,-799.7 94.8,-111.1 189.6,-222.3 284.3,-333.6 855,-1005.3 3674.7,-4320.7 3674.7,-4320.7 l 1439.7,-1692.7 2104.7,-2474.8 2024,-2379.8 c 31.7,-37.3 63.5,-74.5 95.3,-111.6 64.9,-76 132.1,-154.5 197.4,-232.8 205.8,-246.4 459.4,-445 775.3,-606.9 243.5,-124.8 510.2,-210.7 792.5,-255.3 135,-21.3 270.4,-32.1 402.2,-32.1 48.4,0 97.3,1.4 145.3,4.3 587.4,35.3 1107.6,240.1 1546.1,608.7 356.1,299.2 616.9,679 775.2,1128.8 64.9,184.5 109.4,379.6 132,580 15.8,139.3 20.8,275.9 14.9,405.8 -22.8,497 -171.8,953.9 -443,1358.1 -38.1,56.8 -83.2,115.5 -142.1,184.9 -607.7,715.4 -1226.1,1442.3 -1824,2145.3 l -5096.4,5992.2 c -433.2,509.3 -866.3,1018.7 -1299.5,1528.1 -6.2,7.2 -12.1,14.7 -18.7,23 -2.7,3.5 -5.7,7.3 -8.9,11.2 l -54.7,68.3 60.4,63.4 c 32.3,33.8 66,61.7 98.6,88.8 14.3,11.8 27.7,22.9 40.7,34.3 32.9,28.8 66.6,57.2 99.1,84.7 12.4,10.5 24.7,20.9 37.1,31.4 31.9,27.2 64,54.3 95.9,81.4 l 78.2,66.3 49.6,-12.2 c 49.6,-12.2 75.1,-46.4 86,-61 0.9,-1.1 1.7,-2.2 2.5,-3.2 127.7,-149.7 255.3,-299.9 383,-450 l 6386.2,-7508.7 c 483.7,-568.8 967.4,-1137.5 1451.3,-1706.1 206.4,-242.5 377.4,-527.1 508.2,-846 74.4,-181.6 133.4,-371.9 175.3,-565.8 29.1,-134.8 49.8,-269.7 61.5,-400.9 3.6,-41.2 4.4,-81.7 5.2,-120.8 0.4,-21.2 0.8,-41.3 1.6,-61.4 0.1,-4 1.3,-11.1 2.4,-18 0.9,-5.4 1.7,-10.8 2.5,-16.2 l 0.9,-6.7 v -185 l -0.6,-5.4 c -0.8,-7.5 -1.7,-14.9 -2.7,-22.4 -1.7,-13.5 -3.3,-26.2 -3.8,-37.4 -0.8,-18.4 -1.1,-37 -1.3,-56.7 -0.6,-34.3 -1.1,-69.8 -4.5,-106.4 -10.1,-106.9 -25.6,-215.4 -46.2,-322.5 -47.4,-246.4 -121.9,-487.1 -221.3,-715.4 -167.2,-383.7 -400.5,-727 -693.4,-1020.1 -401.4,-401.7 -882.7,-686.2 -1430.3,-845.7 -152.4,-44.4 -294.8,-75.3 -435.3,-94.5 -45.3,-6.3 -90.9,-11.5 -135,-16.5 -28.3,-3.2 -56.7,-6.5 -85,-10 -3.8,-0.5 -10.5,-2.1 -16.9,-3.7 -5.2,-1.2 -10.3,-2.5 -15.5,-3.6 l -10.5,-2.3 h -484.1"
         style="fill:#000000;fill-opacity:1;fill-rule:nonzero;stroke:none"
         id="path34" />
      <path
         d="m 13094.3,34944 h -302.1 l -19.8,-4.1 c -7.9,-1.6 -14.7,-3.2 -20.2,-4.6 -0.8,-0.2 -1.6,-0.4 -2.4,-0.6 -149.9,-10.7 -294.5,-31.5 -430,-61.8 -427.4,-95.7 -812.4,-279.9 -1144.2,-547.7 -352.7,-284.6 -625.4,-645.1 -810.6,-1071.7 -97.3,-224 -165.9,-463.1 -204,-710.7 -9.7,-63.3 -15.3,-125.1 -20.6,-184.8 -1.2,-13.8 -2.5,-27.6 -3.8,-41.4 l -0.4,-4.8 c -0.7,-7.6 -1.6,-17.6 -2.5,-23.2 l -16.1,-34.4 v -44.6 -192 -46.2 l 17,-34.8 c 0.3,-2.6 0.7,-7.1 1.1,-14.3 9.7,-167.5 36.5,-339.2 79.7,-510.5 112.8,-447.9 323.7,-855.8 626.8,-1212.3 453,-532.8 906.1,-1065.5 1359.2,-1598.2 l 503,-591.3 712.8,-838 c 447.4,-526 894.7,-1052 1342.1,-1578 365.1,-429.4 730.3,-858.8 1095.5,-1288.1 391.2,-460.1 782.5,-920.2 1173.8,-1380.3 371.4,-436.7 742.9,-873.5 1114.3,-1310.2 l 940.6,-1105.8 500,-588 c 574.8,-675.9 1169.2,-1374.8 1754.1,-2061.9 56.7,-66.5 110.9,-125.8 165.8,-181.1 166.1,-167.3 352.7,-315.8 570.5,-454.1 275,-174.7 573.9,-309.4 888.2,-400.2 231.7,-67 463.7,-109.6 689.7,-126.7 3.5,-1 7.5,-2.2 11.9,-3.3 l 24.5,-6.3 h 25.3 460.6 21.6 l 21.1,4.6 c 5.9,1.3 11.9,2.8 17.9,4.2 2.5,0.6 5.8,1.4 7.7,1.9 26.9,3.3 54.6,6.4 81.4,9.5 44.8,5.1 91.1,10.4 137.6,16.8 145.4,19.9 292.5,51.8 449.6,97.6 564,164.2 1059.7,457.2 1473.1,871 301.9,302 542.2,655.6 714.4,1050.8 102.4,235.1 179,482.9 227.8,736.6 21.2,110.2 37.2,221.9 47.5,332 3.8,40.5 4.4,79.6 4.9,114.2 0.3,19 0.6,36.9 1.3,53.9 0.3,7 1.7,17.8 3.1,29.2 1.1,8 2,16 2.9,24 l 1.2,10.8 v 10.9 172.8 13.6 l -1.8,13.4 c -0.9,6.2 -1.9,12.4 -2.9,18.6 -0.4,2.8 -1,6.5 -1.3,8.5 -0.7,18.3 -1.1,37.1 -1.5,57 -0.7,40.8 -1.6,83 -5.5,127.7 -12.1,135.3 -33.4,274.3 -63.3,413.1 -43.2,199.6 -103.9,395.7 -180.6,582.6 -134.9,328.7 -311.3,622.4 -524.5,872.9 -487.5,572.7 -982.9,1155.2 -1461.9,1718.5 -188.4,221.6 -376.9,443.2 -565.3,664.7 l -808.8,951 -1299.2,1527.5 -1896.5,2229.8 -986,1159.4 -739.5,869.5 -78.8,92.7 c -125.4,147.4 -255,299.8 -382.8,449.6 l -0.2,0.4 c -14.3,19.1 -57.9,77.5 -142.4,98.2 l -99.2,24.4 -77.8,-66.1 -41.6,-35.2 c -31.2,-26.4 -62.5,-52.9 -93.7,-79.5 -12.3,-10.4 -24.6,-20.8 -36.9,-31.2 -32.8,-27.8 -66.7,-56.5 -100.3,-85.8 -12,-10.5 -25,-21.2 -38.7,-32.6 -33.2,-27.6 -70.8,-58.8 -107.1,-96.8 l -120.9,-126.6 109.5,-136.6 c 3,-3.7 5.7,-7.2 8.3,-10.5 6.6,-8.3 13.3,-16.8 21.1,-26 433.2,-509.4 866.3,-1018.8 1299.5,-1528.1 l 1094.4,-1286.7 960.7,-1129.6 1233.5,-1450.3 1315.9,-1547.3 477.2,-561 c 602.8,-708.7 1226.1,-1441.5 1838.6,-2162.6 56.4,-66.4 99.4,-122.3 135.4,-175.8 260.8,-388.8 404.1,-828.5 426,-1306.9 5.8,-124.7 1,-255.9 -14.2,-390 -21.9,-193 -64.6,-380.7 -127,-558 -152.3,-432.8 -403.1,-798 -745.2,-1085.5 -421.8,-354.5 -922.3,-551.5 -1487.8,-585.5 -46,-2.7 -92.9,-4.1 -139.4,-4.1 -126.6,0 -256.6,10.4 -386.5,30.9 -271.9,42.9 -528.4,125.5 -762.5,245.5 -303.7,155.7 -547.1,346.1 -744.1,582 -65.8,78.8 -133.3,157.8 -198.6,234.1 -31.6,36.9 -63.2,73.9 -94.8,111 -674.6,793.2 -1349.3,1586.5 -2023.9,2379.8 l -828.2,973.8 c -425.5,500.3 -851,1000.7 -1276.5,1501 -497.2,584.6 -994.3,1169.1 -1491.5,1753.6 l -1058,1243.9 c -855,1005.3 -1710,2010.6 -2564.9,3015.9 -94.8,111.4 -189.7,222.7 -284.7,334 -222.8,261.4 -453.2,531.6 -677.6,798.8 -261.2,311 -417,672.7 -463,1075.1 -17.7,153.9 -16.1,309.6 4.5,462.7 30.4,225.8 97.6,439.6 199.7,635.2 194.4,372.5 468.3,639.5 837.5,816.4 253.6,121.5 528.8,183.1 817.9,183.1 11.7,0 23.5,-0.1 35.3,-0.3 126.9,-2.1 252,-15.9 371.7,-41 353.8,-74 670.5,-241.5 941.4,-497.9 71.5,-67.7 138.1,-144.8 205.8,-224.4 410.9,-483.3 821.9,-966.5 1232.9,-1449.7 l 548.6,-644.9 1140.4,-1340.9 1073.2,-1261.9 1103,-1296.8 952.2,-1119.5 c 724.4,-851.7 1448.8,-1703.4 2173.1,-2555.2 19.7,-23.1 39.6,-45.9 58.8,-67.9 45,-51.6 87.5,-100.3 125.2,-150.5 243.1,-323.1 319.7,-671.8 234.3,-1065.9 -118.1,-545 -576.6,-938.6 -1140.8,-979.4 -31.2,-2.2 -62.7,-3.4 -93.6,-3.4 -182,0 -361,39.8 -532.2,118.3 -165.7,76 -304.6,178.9 -412.9,305.7 -401.3,470.2 -808.5,949.2 -1202.3,1412.4 -128.9,151.6 -257.8,303.2 -386.8,454.9 -340.2,400 -680.5,800.2 -1020.8,1200.3 l -757.4,890.7 c -520,611.4 -1040,1222.8 -1560,1834.2 l -227.7,267.7 -94.3,110.9 c -267.4,314.4 -543.9,639.5 -816.1,959.2 -0.6,0.8 -1.2,1.5 -1.8,2.3 -14,18.3 -46.9,61.1 -106.9,88.8 l -116.1,53.6 -97.4,-82.9 -134.6,-114.7 c -13.8,-11.7 -27.6,-23.4 -41.4,-35.1 -31.1,-26.4 -63.3,-53.7 -95.1,-81.2 -12,-10.4 -24.7,-21 -38.2,-32.2 -33.3,-27.6 -71.1,-59 -107.8,-96.6 l -121.7,-124.6 106.7,-137.7 c 2.9,-3.8 5.7,-7.4 8.4,-10.9 7.1,-9.5 15.3,-20.3 25,-31.7 73.3,-86.4 146.7,-172.6 220,-258.9 l 50.5,-59.4 606.1,-712.5 c 428.1,-503.4 856.2,-1006.7 1284.3,-1510 577.3,-678.7 1154.6,-1357.5 1731.9,-2036.3 l 105.5,-124.1 459.9,-540.7 c 496.5,-583.8 993,-1167.6 1489.6,-1751.3 9.7,-11.5 19.4,-22.9 29.1,-34.4 51.2,-60.4 104.1,-122.8 161.4,-183.2 212.4,-223.4 467.7,-396.8 759.1,-515.2 201,-81.7 412.1,-133.4 627.4,-153.5 72.5,-6.8 145.5,-10.2 217.3,-10.2 88.5,0 177.7,5.2 265.2,15.5 126.4,14.9 254.9,42.3 381.9,81.3 254,78.1 487.8,199 694.9,359.3 271.7,210.3 485.3,474.5 634.6,785.1 126.8,263.9 199.4,547.2 215.6,842 13.3,240.4 -11.6,477.7 -73.8,705.3 -85.8,313.6 -233.4,596.1 -438.8,839.6 -37.1,44 -74.8,88.3 -111.4,131.2 -19,22.3 -38,44.6 -57,66.9 l -659.2,775.1 c -427.9,503.3 -855.8,1006.5 -1283.8,1509.7 -355.1,417.5 -710.2,834.9 -1065.3,1252.3 -346.5,407.5 -693.1,814.9 -1039.7,1222.4 -371,436.2 -742,872.5 -1112.9,1308.7 l -789.7,928.6 -263,309.2 c -526.8,619.5 -1053.7,1239 -1580.7,1858.5 -48.3,56.8 -97.3,114.8 -144.7,170.9 -121.7,144 -247.6,293 -375.2,437.5 -315.7,357.7 -699.1,624.2 -1139.6,791.9 -182.6,69.6 -375.3,120.4 -572.6,151 -87.4,13.6 -175.7,23.7 -262.7,30 -4.7,1.3 -10.7,2.9 -17.5,4.4 l -22,5.1 z m -22.7,-200 c 12.3,-2.8 24.5,-7.3 37,-8.2 86.2,-5.9 171.8,-15.6 257.2,-28.9 182.3,-28.3 359.8,-74.6 532.1,-140.3 414.6,-157.9 767.9,-405.4 1060.9,-737.4 175.7,-199 345.4,-403.3 517.5,-605.6 614.6,-722.5 1229.1,-1445.1 1843.6,-2167.7 634.3,-745.7 1268.4,-1491.6 1902.7,-2237.3 701.6,-824.9 1403.3,-1649.7 2104.9,-2474.7 647.8,-761.5 1295.4,-1523.2 1943,-2284.8 56,-65.8 112.3,-131.3 167.9,-197.4 189.6,-224.8 321.2,-480 398.7,-763.5 57.5,-210.1 79.1,-424.3 67.1,-641.5 -14.7,-268.1 -79.6,-523.9 -196.2,-766.3 -136.1,-283.3 -328.3,-521.4 -576.7,-713.6 -190.4,-147.4 -401.2,-255.6 -631.3,-326.3 -113.4,-34.9 -228.9,-60 -346.6,-73.9 -80.5,-9.5 -161,-14.1 -241.7,-14.1 -66.2,0 -132.4,3.1 -198.7,9.3 -197.2,18.5 -387.4,65.1 -570.7,139.6 -262.8,106.9 -493.8,261.9 -689.4,467.8 -63.8,67.2 -123.1,138.7 -183.2,209.4 -649.9,763.9 -1299.6,1527.9 -1949.4,2292 -612.5,720.1 -1225,1440.3 -1837.4,2160.4 -630.1,740.8 -1260.3,1481.7 -1890.4,2222.5 -90.2,106 -180.4,212 -270.4,318.1 -9.1,10.7 -17.4,22.2 -27.8,35.7 42.5,43.6 89.6,79 133.9,117.5 44.7,38.7 90.1,76.8 135.1,115.2 44.9,38.2 89.8,76.4 134.7,114.6 19.7,-9.1 28.3,-25.2 39.4,-38.2 303.9,-356.9 607.5,-713.9 911.1,-1070.9 595.9,-700.7 1191.8,-1401.3 1787.7,-2102 592.8,-697 1185.5,-1394 1778.3,-2091 529.6,-622.7 1058.6,-1245.8 1589.3,-1867.5 132.7,-155.5 296,-272.5 481.6,-357.7 196.9,-90.2 402.5,-136.5 615.6,-136.5 35.8,0 71.8,1.3 108,4 680.5,49.1 1190.3,529.7 1321.9,1136.5 97.4,449.4 6.7,860.6 -270,1228.5 -59.5,79.1 -127.1,152.1 -191.4,227.7 -724.4,851.7 -1448.8,1703.5 -2173.2,2555.2 -685,805.4 -1370.1,1610.8 -2055.1,2416.3 -737.9,867.5 -1475.7,1735.2 -2213.6,2602.7 -593.9,698.2 -1187.8,1396.4 -1781.5,2094.7 -70.5,82.9 -141.6,165.1 -220.7,240 -295.1,279.3 -639.6,465.1 -1038,548.5 -134.8,28.2 -271.3,42.9 -409.3,45.2 -12.9,0.2 -25.7,0.3 -38.6,0.3 -316.1,0 -618.1,-65.6 -904.3,-202.7 -410.9,-196.8 -718.1,-501.3 -928.4,-904.2 -115,-220.4 -187.5,-454.9 -220.7,-701.2 -22.9,-170.2 -24.5,-341 -4.9,-512.1 50.9,-444.9 221.3,-838.9 508.5,-1180.9 318.9,-379.7 641.9,-756.1 963.1,-1133.8 855,-1005.3 1710,-2010.6 2565,-3015.8 849.8,-999.2 1699.6,-1998.4 2549.4,-2997.5 701.6,-825 1403.2,-1650 2104.7,-2474.9 674.7,-793.3 1349.3,-1586.5 2024,-2379.8 97.4,-114.5 195.8,-228.3 292.2,-343.7 223.9,-268.2 497,-473.2 806.4,-631.8 259.6,-133.1 534.6,-219.6 822.5,-265.1 138.6,-21.9 278,-33.3 417.7,-33.3 50.4,0 100.9,1.5 151.4,4.5 603.2,36.2 1140.8,242.3 1604.5,631.9 375.9,316 642.1,709.2 805.1,1172.2 68.8,195.3 113.8,396.1 137.1,602 15.9,140.3 21.8,280.8 15.3,421.6 -23.4,511.9 -173.9,983.1 -459.7,1409.2 -45.4,67.6 -96.3,131.8 -149,193.9 -771.6,908.3 -1543.8,1815.9 -2315.9,2723.7 -849.8,999.2 -1699.6,1998.4 -2549.4,2997.6 -685,805.4 -1370.1,1610.8 -2055.1,2416.2 -433.2,509.4 -866.4,1018.7 -1299.5,1528.1 -8.2,9.7 -15.8,19.7 -25.7,32.1 41.4,43.4 88.7,78.4 132.7,116.9 44.6,38.9 90,76.9 135.1,115.2 45,38.3 90.1,76.4 135.1,114.6 19,-4.7 26.2,-20.1 36.1,-31.8 154.7,-181.3 309,-363 463.5,-544.5 575.1,-676.3 1150.3,-1352.6 1725.4,-2028.9 632.2,-743.2 1264.4,-1486.5 1896.6,-2229.8 702.6,-826.2 1405.3,-1652.3 2107.9,-2478.4 675.8,-794.5 1351.3,-1589.1 2027.3,-2383.3 209.3,-246 369.5,-521.1 491.7,-819.2 73,-177.9 129.6,-361 170.2,-548.9 27.7,-128.4 47.9,-257.9 59.5,-388.6 5.3,-58.9 4.2,-118.3 6.6,-177.4 0.6,-14.6 3.7,-29.1 5.7,-43.7 0,-57.6 0,-115.2 0,-172.8 -2.4,-22.1 -6,-44.1 -7,-66.2 -2.3,-52.7 -0.6,-105.7 -5.5,-158.1 -9.9,-105 -24.9,-209.3 -44.8,-313 -46.1,-239.4 -117.5,-471 -214.8,-694.4 -162,-371.9 -385.6,-702.3 -672.5,-989.3 -392.1,-392.4 -855.1,-665.4 -1387.5,-820.4 -138.1,-40.2 -278.2,-71.9 -420.9,-91.5 -72.7,-9.9 -145.8,-17.2 -218.7,-26.2 -14,-1.8 -27.6,-5.9 -41.4,-8.9 -153.6,0 -307.1,0 -460.6,0 -10.6,2.7 -21.1,7.2 -31.9,7.9 -225.7,15.9 -446.9,57.7 -663.9,120.5 -296.7,85.7 -575.7,211.2 -836.6,376.9 -193.7,123 -373.9,263.2 -535.7,426.2 -54.1,54.4 -105.8,111.4 -155.5,169.8 -751.6,883.1 -1502.8,1766.5 -2254.1,2649.9 -684.9,805.3 -1369.9,1610.6 -2054.9,2416 -756.4,889.4 -1512.8,1778.9 -2269.3,2668.3 -684.9,805.4 -1369.9,1610.7 -2054.9,2416.1 -620.7,729.8 -1241.5,1459.6 -1862.1,2189.5 -282.3,332 -478.8,708.6 -585.3,1131.6 -39.2,155.4 -64.6,313.1 -73.9,473.2 -1.7,28.8 -4.9,57.3 -17.8,83.7 0,64 0,128 0,192 13.1,28 15.4,58.1 18.2,88.4 6.6,71.6 12,143.5 22.9,214.4 35.1,228.5 97.6,449.3 189.7,661.5 170.5,392.7 419.1,726.4 752.8,995.7 313.9,253.3 669.2,420.2 1062.2,508.1 134.4,30.1 270.3,48.5 407.6,58 14,1 27.7,5.5 41.5,8.3 86.4,0 172.8,0 259.1,0"
         style="fill:#ffffff;fill-opacity:1;fill-rule:nonzero;stroke:none"
         id="path36" />
      <path
         d="m 31057.3,17531.3 -2395.9,7689.6 c -1557.2,-488.4 -3114.4,-976.7 -4671.6,-1465 442,-1192.6 884,-2385.2 1326,-3577.8 l -3293.6,-724.3 1345.5,-4318.5 7689.6,2396"
         style="fill:#000000;fill-opacity:1;fill-rule:nonzero;stroke:none"
         id="path38" />
    </g>
  </g>
</svg>
