<svg id="vector" xmlns="http://www.w3.org/2000/svg" width="24" height="24" viewBox="0 0 48.0 48.0"><path fill="#90CAF9" d="M30,3l-22,0l0,42l32,0l0,-32z" id="path_0"/><path fill="#E1F5FE" d="M38.5,14l-9.5,0l0,-9.5z" id="path_1"/><path fill="#1976D2" d="M22,21h4v2h-4z" id="path_2"/><path fill="#1976D2" d="M22,15h4v2h-4z" id="path_3"/><path fill="#1976D2" d="M22,18h4v2h-4z" id="path_4"/><path fill="#1976D2" d="M22,24h4v2h-4z" id="path_5"/><path fill="#1976D2" d="M22,9h4v2h-4z" id="path_6"/><path fill="#1976D2" d="M22,3h4v2h-4z" id="path_7"/><path fill="#1976D2" d="M22,6h4v2h-4z" id="path_8"/><path fill="#1976D2" d="M22,12h4v2h-4z" id="path_9"/><path fill="#3F51B5" d="M26,27h-4c0,3 -2,6 -2,8c0,2.21 1.79,4 4,4s4,-1.79 4,-4C28,33 26,30 26,27zM24,37c-1.1,0 -2,-0.9 -2,-2s0.9,-2 2,-2s2,0.9 2,2S25.1,37 24,37z" id="path_10"/></svg>