<?xml version="1.0" encoding="iso-8859-1"?>
<!-- Uploaded to: SVG Repo, www.svgrepo.com, Generator: SVG Repo Mixer Tools -->
<svg version="1.1" id="Layer_1" xmlns="http://www.w3.org/2000/svg" xmlns:xlink="http://www.w3.org/1999/xlink" 
	 viewBox="0 0 318.188 318.188" xml:space="preserve">
<g>
	<polygon style="fill:#E8E8E8;" points="227.321,7.5 40.342,7.5 40.342,310.688 277.846,310.688 277.846,58.025 	"/>
	<g>
		<rect x="100.318" y="173.87" style="fill:#A4A9AD;" width="49.542" height="12.865"/>
		<rect x="100.318" y="149.229" style="fill:#A4A9AD;" width="107.542" height="12.865"/>
		<rect x="100.318" y="124.587" style="fill:#A4A9AD;" width="117.55" height="12.865"/>
		<rect x="100.318" y="99.945" style="fill:#A4A9AD;" width="82.208" height="12.865"/>
		<rect x="100.318" y="75.304" style="fill:#A4A9AD;" width="117.55" height="12.865"/>
	</g>
	<polygon style="fill:#A4A9AD;" points="235.14,32.763 40.342,32.763 40.342,7.5 227.321,7.5 	"/>
	<polygon style="fill:#D1D3D3;" points="227.321,58.025 277.846,58.025 227.321,7.5 	"/>
	<path style="fill:#333E48;" d="M283.149,52.722L232.625,2.197C231.218,0.79,229.311,0,227.321,0H40.342c-4.142,0-7.5,3.358-7.5,7.5
		v303.188c0,4.142,3.358,7.5,7.5,7.5h237.504c4.142,0,7.5-3.358,7.5-7.5V58.025C285.346,56.036,284.556,54.129,283.149,52.722z
		 M234.821,25.606l24.918,24.919h-24.918L234.821,25.606L234.821,25.606z M47.842,15h171.979v10.263H47.842V15z M270.346,303.188
		H47.842V40.263h171.979v17.763c0,4.142,3.358,7.5,7.5,7.5h43.024v237.662H270.346z M138.099,247.569
		c0-9.451-6.52-14.177-19.559-14.177h-15.72v47.979h12.963v-17.459h3.282l10.174,17.459h14.702l-13.98-20.905
		C135.386,257.426,138.099,253.126,138.099,247.569z M118.212,254.166h-2.429v-10.961h2.56c4.441,0,6.662,1.652,6.662,4.956
		C125.005,252.164,122.741,254.166,118.212,254.166z M188.016,281.371h12.766v-18.017h14.374v-10.403h-14.374v-9.156h15.589v-10.403
		h-28.354v47.979H188.016z M144.794,243.992h11.716v37.379h12.963v-37.379h11.682v-10.6h-36.361V243.992z"/>
</g>
</svg>