<?xml version="1.0" encoding="UTF-8"?>
<svg xmlns="http://www.w3.org/2000/svg" xmlns:xlink="http://www.w3.org/1999/xlink" width="3200" height="3200" viewBox="0 0 3200 3200">
<path fill-rule="evenodd" fill="rgb(100%, 58.396912%, 0.39978%)" fill-opacity="1" d="M 524.738281 431.480469 C 497.226562 431.628906 475 453.96875 475 481.480469 C 475 481.480469 475 2432.089844 475 2900 C 475 2939.78125 490.804688 2977.933594 518.933594 3006.066406 C 547.0625 3034.195312 585.21875 3050 625 3050 L 2575 3050 C 2657.839844 3050 2725 2982.84375 2725 2900 L 2725 850 C 2725 767.160156 2657.839844 700 2575 700 L 1814.128906 700 C 1814.128906 700 1814.128906 475 1814.128906 475 C 1814.128906 461.691406 1808.828125 448.941406 1799.390625 439.550781 C 1789.960938 430.171875 1777.179688 424.929688 1763.871094 425 L 524.738281 431.480469 "/>
<path fill-rule="evenodd" fill="rgb(99.21875%, 91.796875%, 62.693787%)" fill-opacity="1" d="M 2675 200 C 2675 172.390625 2652.609375 150 2625 150 L 800 150 C 624.039062 150 480.738281 289.839844 475.167969 464.449219 C 475.054688 467.949219 475.128906 485.570312 475.378906 490.808594 C 483.621094 662.960938 625.804688 800 800 800 L 2625 800 C 2652.609375 800 2675 777.609375 2675 750 L 2675 200 "/>
<path fill-rule="evenodd" fill="rgb(98.4375%, 81.25%, 18.797302%)" fill-opacity="1" d="M 2550 250 L 2550 700 L 797.199219 700 C 691.460938 700 602.972656 625.199219 580.519531 525 C 576.914062 508.921875 575.472656 458.210938 576.371094 450 C 588.652344 337.5 682.835938 250 797.199219 250 L 2550 250 "/>
<path fill-rule="evenodd" fill="rgb(99.21875%, 91.796875%, 62.693787%)" fill-opacity="1" d="M 2600 446.300781 L 1250 446.300781 C 1222.398438 446.300781 1200 468.699219 1200 496.300781 C 1200 523.890625 1222.398438 546.300781 1250 546.300781 L 2600 546.300781 C 2627.601562 546.300781 2650 523.890625 2650 496.300781 C 2650 468.699219 2627.601562 446.300781 2600 446.300781 "/>
<path fill-rule="evenodd" fill="rgb(99.21875%, 91.796875%, 62.693787%)" fill-opacity="1" d="M 2950 1450 C 2950 1410.21875 2934.199219 1372.058594 2906.070312 1343.929688 C 2877.941406 1315.800781 2839.78125 1300 2800 1300 C 2386.601562 1300 813.398438 1300 400 1300 C 360.21875 1300 322.0625 1315.800781 293.933594 1343.929688 C 265.804688 1372.058594 250 1410.21875 250 1450 C 250 1641.601562 250 2058.398438 250 2250 C 250 2289.78125 265.804688 2327.933594 293.933594 2356.066406 C 322.0625 2384.195312 360.21875 2400 400 2400 C 813.398438 2400 2386.601562 2400 2800 2400 C 2839.78125 2400 2877.941406 2384.195312 2906.070312 2356.066406 C 2934.199219 2327.933594 2950 2289.78125 2950 2250 L 2950 1450 "/>
<path fill-rule="evenodd" fill="rgb(57.226562%, 32.493591%, 0%)" fill-opacity="1" d="M 550 1900 L 700 1900 C 727.597656 1900 750 1877.601562 750 1850 C 750 1822.398438 727.597656 1800 700 1800 L 550 1800 L 550 1600 L 700 1600 C 727.597656 1600 750 1577.589844 750 1550 C 750 1522.398438 727.597656 1500 700 1500 L 500 1500 C 472.386719 1500 450 1522.390625 450 1550 L 450 2150 C 450 2177.609375 472.386719 2200 500 2200 L 700 2200 C 727.597656 2200 750 2177.589844 750 2150 C 750 2122.398438 727.597656 2100 700 2100 L 550 2100 Z M 1200 2200 L 1200.648438 2200 C 1209.148438 2199.960938 1217.648438 2199.410156 1226.078125 2198.308594 C 1240.230469 2196.46875 1254.160156 2193.101562 1267.589844 2188.269531 C 1289.410156 2180.429688 1309.808594 2168.738281 1327.648438 2153.921875 C 1346.929688 2137.910156 1363.171875 2118.300781 1375.261719 2096.359375 C 1384.121094 2080.300781 1390.738281 2063.019531 1394.878906 2045.140625 C 1399.921875 2023.289062 1401.238281 2000.601562 1398.839844 1978.308594 C 1396.339844 1955.179688 1389.761719 1932.539062 1379.46875 1911.691406 C 1372 1896.558594 1362.609375 1882.390625 1351.601562 1869.601562 C 1345.71875 1862.78125 1339.390625 1856.359375 1332.660156 1850.378906 L 1332.660156 1849.621094 C 1350.339844 1833.878906 1365.238281 1815.109375 1376.421875 1794.238281 C 1385.289062 1777.679688 1391.800781 1759.878906 1395.679688 1741.511719 C 1402.210938 1710.589844 1401.328125 1678.148438 1393.070312 1647.648438 C 1387.390625 1626.699219 1378.261719 1606.730469 1366.160156 1588.710938 C 1355.21875 1572.421875 1341.890625 1557.761719 1326.71875 1545.308594 C 1306.730469 1528.910156 1283.578125 1516.429688 1258.859375 1508.820312 C 1239.820312 1502.949219 1219.921875 1500 1200 1500 C 1150 1500 1100 1500 1050 1500 C 1043.640625 1500 1037.289062 1501.210938 1031.378906 1503.578125 C 1023.828125 1506.609375 1017.058594 1511.519531 1011.800781 1517.738281 C 1007.628906 1522.671875 1004.429688 1528.398438 1002.429688 1534.550781 C 1000.820312 1539.53125 1000 1544.761719 1000 1550 C 1000 1750 1000 1950 1000 2150 C 1000 2155.140625 1000.78125 2160.269531 1002.339844 2165.160156 C 1005.578125 2175.351562 1012.140625 2184.359375 1020.808594 2190.601562 C 1029.28125 2196.699219 1039.570312 2200 1050 2200 C 1100 2200 1150 2200 1200 2200 Z M 2450 2006.75 L 2667.988281 2188.410156 C 2689.191406 2206.078125 2720.738281 2203.210938 2738.410156 2182.011719 C 2756.078125 2160.808594 2753.210938 2129.261719 2732.011719 2111.589844 L 2450 1876.578125 L 2450 1873.421875 L 2732.011719 1638.410156 C 2753.210938 1620.738281 2756.078125 1589.191406 2738.410156 1567.988281 C 2720.738281 1546.789062 2689.191406 1543.921875 2667.988281 1561.589844 L 2450 1743.25 L 2450 1600 C 2450 1572.398438 2427.601562 1550 2400 1550 C 2372.398438 1550 2350 1572.398438 2350 1600 L 2350 2150 C 2350 2177.601562 2372.398438 2200 2400 2200 C 2427.601562 2200 2450 2177.601562 2450 2150 Z M 1850 1625 C 1850 1556.011719 1793.988281 1500 1725 1500 L 1575 1500 C 1506.011719 1500 1450 1556.011719 1450 1625 L 1450 2075 C 1450 2143.988281 1506.011719 2200 1575 2200 L 1725 2200 C 1793.988281 2200 1850 2143.988281 1850 2075 Z M 2300 1625 C 2300 1556.011719 2243.988281 1500 2175 1500 L 2025 1500 C 1956.011719 1500 1900 1556.011719 1900 1625 L 1900 2075 C 1900 2143.988281 1956.011719 2200 2025 2200 L 2175 2200 C 2243.988281 2200 2300 2143.988281 2300 2075 Z M 1200.648438 1800 C 1255.539062 1799.648438 1300 1754.980469 1300 1700 C 1300 1644.808594 1255.191406 1600 1200 1600 C 1200 1600 1100 1600 1100 1600 L 1100 2100 L 1200.648438 2100 C 1212.351562 2099.890625 1223.96875 2097.808594 1234.941406 2093.71875 C 1245.710938 2089.699219 1255.75 2083.800781 1264.519531 2076.378906 C 1273.851562 2068.488281 1281.730469 2058.890625 1287.628906 2048.179688 C 1292.058594 2040.148438 1295.371094 2031.511719 1297.441406 2022.570312 C 1299.960938 2011.648438 1300.621094 2000.300781 1299.421875 1989.148438 C 1298.179688 1977.691406 1294.941406 1966.46875 1289.871094 1956.121094 C 1284.308594 1944.761719 1276.578125 1934.488281 1267.21875 1925.988281 C 1253.550781 1913.558594 1236.488281 1905.039062 1218.308594 1901.671875 C 1213.75 1900.828125 1209.140625 1900.308594 1204.5 1900.101562 C 1202.359375 1900.011719 1200.210938 1900.039062 1198.070312 1899.960938 C 1196.171875 1899.890625 1194.269531 1899.710938 1192.390625 1899.421875 C 1187.121094 1898.621094 1181.988281 1896.960938 1177.25 1894.53125 C 1171.359375 1891.511719 1166.078125 1887.308594 1161.808594 1882.261719 C 1157.839844 1877.558594 1154.738281 1872.128906 1152.730469 1866.320312 C 1150.878906 1860.980469 1149.96875 1855.328125 1150 1849.679688 C 1150.039062 1844.449219 1150.890625 1839.230469 1152.53125 1834.261719 C 1154.628906 1827.941406 1158.011719 1822.070312 1162.398438 1817.058594 C 1167.839844 1810.859375 1174.800781 1806.03125 1182.53125 1803.140625 C 1188.011719 1801.089844 1193.828125 1800.058594 1199.679688 1800 Z M 1750 1625 L 1750 2075 C 1750 2088.800781 1738.800781 2100 1725 2100 L 1575 2100 C 1561.199219 2100 1550 2088.800781 1550 2075 L 1550 1625 C 1550 1611.199219 1561.199219 1600 1575 1600 L 1725 1600 C 1738.800781 1600 1750 1611.199219 1750 1625 Z M 2200 1625 L 2200 2075 C 2200 2088.800781 2188.800781 2100 2175 2100 L 2025 2100 C 2011.199219 2100 2000 2088.800781 2000 2075 L 2000 1625 C 2000 1611.199219 2011.199219 1600 2025 1600 L 2175 1600 C 2188.800781 1600 2200 1611.199219 2200 1625 Z M 850 1900 L 900 1900 C 927.597656 1900 950 1877.601562 950 1850 C 950 1822.398438 927.597656 1800 900 1800 L 850 1800 C 822.402344 1800 800 1822.398438 800 1850 C 800 1877.601562 822.402344 1900 850 1900 "/>
<path fill-rule="evenodd" fill="rgb(57.226562%, 32.397461%, 0%)" fill-opacity="1" d="M 975 2800 L 2225 2800 C 2252.601562 2800 2275 2777.597656 2275 2750 C 2275 2722.402344 2252.601562 2700 2225 2700 L 975 2700 C 947.402344 2700 925 2722.402344 925 2750 C 925 2777.597656 947.402344 2800 975 2800 Z M 975 2600 L 2225 2600 C 2252.601562 2600 2275 2577.597656 2275 2550 C 2275 2522.402344 2252.601562 2500 2225 2500 L 975 2500 C 947.402344 2500 925 2522.402344 925 2550 C 925 2577.597656 947.402344 2600 975 2600 Z M 975 1200 L 2225 1200 C 2252.601562 1200 2275 1177.601562 2275 1150 C 2275 1122.398438 2252.601562 1100 2225 1100 L 975 1100 C 947.402344 1100 925 1122.398438 925 1150 C 925 1177.601562 947.402344 1200 975 1200 Z M 975 1000 L 2225 1000 C 2252.601562 1000 2275 977.601562 2275 950 C 2275 922.398438 2252.601562 900 2225 900 L 975 900 C 947.402344 900 925 922.398438 925 950 C 925 977.601562 947.402344 1000 975 1000 "/>
</svg>
