<svg id="vector" xmlns="http://www.w3.org/2000/svg" width="24" height="24" viewBox="0 0 40.0 40.0"><path fill="#FFFFFF" d="M6.5,37.5l0,-35l18.29,0l8.71,8.71l0,26.29z" id="path_0"/><path fill="#4788C7" d="M24.59,3L33,11.41V37H7V3H24.59M25,2H6v36h28V11L25,2L25,2z" id="path_1"/><path fill="#DFF0FE" d="M24.5,11.5l0,-9l0.29,0l8.71,8.71l0,0.29z" id="path_2"/><path fill="#4788C7" d="M25,3.41L32.59,11H25V3.41M25,2h-1v10h10v-1L25,2L25,2z" id="path_3"/><path fill="#4788C7" d="M27.5,17h-15c-0.28,0 -0.5,-0.22 -0.5,-0.5v0c0,-0.28 0.22,-0.5 0.5,-0.5h15c0.28,0 0.5,0.22 0.5,0.5v0C28,16.78 27.78,17 27.5,17z" id="path_4"/><path fill="#4788C7" d="M23.5,20h-11c-0.28,0 -0.5,-0.22 -0.5,-0.5v0c0,-0.28 0.22,-0.5 0.5,-0.5h11c0.28,0 0.5,0.22 0.5,0.5v0C24,19.78 23.78,20 23.5,20z" id="path_5"/><path fill="#4788C7" d="M27.5,23h-15c-0.28,0 -0.5,-0.22 -0.5,-0.5v0c0,-0.28 0.22,-0.5 0.5,-0.5h15c0.28,0 0.5,0.22 0.5,0.5v0C28,22.78 27.78,23 27.5,23z" id="path_6"/><path fill="#4788C7" d="M23.5,26h-11c-0.28,0 -0.5,-0.22 -0.5,-0.5v0c0,-0.28 0.22,-0.5 0.5,-0.5h11c0.28,0 0.5,0.22 0.5,0.5v0C24,25.78 23.78,26 23.5,26z" id="path_7"/><path fill="#4788C7" d="M27.5,29h-15c-0.28,0 -0.5,-0.22 -0.5,-0.5v0c0,-0.28 0.22,-0.5 0.5,-0.5h15c0.28,0 0.5,0.22 0.5,0.5v0C28,28.78 27.78,29 27.5,29z" id="path_8"/></svg>