<svg id="vector" xmlns="http://www.w3.org/2000/svg" width="24" height="24" viewBox="0 0 40.0 40.0"><path fill="#DBB065" d="M1.5,35.5l0,-31l10.29,0l3,3l20.71,0l0,28z" id="path_0"/><path fill="#967A44" d="M11.59,5l2.71,2.71L14.59,8H15h20v27H2V5H11.59M12,4H1v32h35V7H15L12,4L12,4z" id="path_1"/><path fill="#FFFFFF" d="M4.5,7.5h31v18h-31z" id="path_2"/><path fill="#788B9C" d="M35,8v17H5V8H35M36,7H4v19h32V7L36,7z" id="path_3"/><path fill="#F5CE85" d="M1.6,35.5l3.82,-21l10.73,0l3,-2l20.26,0l-3.83,23z" id="path_4"/><path fill="#967A44" d="M38.82,13l-3.67,22H2.2l3.64,-20H16h0.3l0.25,-0.17L19.3,13H38.82M40,12H19l-3,2H5L1,36h35L40,12L40,12z" id="path_5"/></svg>